<svg xmlns="http://www.w3.org/2000/svg" width="200" height="300" viewBox="0 0 200 300"><rect width="100%" height="100%" fill="#DDDDDD"/><path fill="#999999" d="M50.478 151.985q0-1.11-.78-1.78-.79-.67-2.75-1.27-3.43-.98-5.18-2.34t-1.75-3.72 2.01-3.86q2.01-1.49 5.13-1.49 3.17 0 5.16 1.68t1.92 4.14l-.03.08h-3.73q0-1.33-.89-2.15-.89-.83-2.49-.83-1.55 0-2.39.69t-.84 1.75q0 .98.9 1.61.9.62 3.12 1.32 3.17.88 4.81 2.33 1.63 1.45 1.63 3.81 0 2.47-1.94 3.89-1.95 1.43-5.14 1.43-3.13 0-5.47-1.62-2.33-1.61-2.26-4.53l.02-.08h3.75q0 1.72 1.04 2.52 1.05.79 2.92.79 1.57 0 2.4-.64.83-.65.83-1.73m12.77 5.29q-3.09 0-4.94-1.98-1.84-1.98-1.84-5.02v-.53q0-3.18 1.75-5.23 1.74-2.06 4.68-2.05 2.89 0 4.49 1.74 1.59 1.74 1.59 4.71v2.09h-8.52l-.02.08q.1 1.41.94 2.32t2.27.91q1.28 0 2.13-.25.84-.26 1.84-.81l1.04 2.37q-.87.71-2.28 1.18t-3.13.47m-.35-11.84q-1.07 0-1.68.82-.62.81-.77 2.14l.04.07h4.72v-.34q0-1.23-.57-1.96-.58-.73-1.74-.73m8.32-2.7h3.57l.16 1.88q.69-1.03 1.72-1.59 1.04-.56 2.4-.56 1.37 0 2.34.61.98.6 1.48 1.83.66-1.15 1.71-1.79 1.06-.65 2.48-.65 2.11 0 3.33 1.46t1.22 4.43v8.64h-3.85v-8.65q0-1.62-.53-2.25-.52-.64-1.57-.64-.81 0-1.41.37-.6.36-.96 1.01 0 .25.01.42.02.18.02.37v9.37h-3.84v-8.65q0-1.58-.53-2.23-.52-.66-1.58-.66-.78 0-1.36.3-.59.3-.97.84v10.4h-3.84zm41.16 7.73h3.73l.03.08q.05 3.1-1.89 4.91-1.95 1.82-5.4 1.82-3.47 0-5.63-2.23t-2.16-5.74v-3.81q0-3.49 2.11-5.73 2.1-2.24 5.48-2.24 3.56 0 5.56 1.82 2.01 1.83 1.95 4.98l-.02.08h-3.75q0-1.9-.91-2.91t-2.83-1.01q-1.73 0-2.74 1.41-1.02 1.4-1.02 3.58v3.83q0 2.21 1.07 3.61t2.89 1.4q1.8 0 2.67-.97.86-.96.86-2.88m18.41 6.53h-3.85q-.22-.49-.37-1.03t-.21-1.11q-.6 1.05-1.57 1.73-.97.69-2.31.69-2.24 0-3.45-1.16-1.22-1.15-1.22-3.14 0-2.1 1.62-3.25 1.61-1.15 4.71-1.15h2.15v-1.14q0-1.03-.54-1.59-.54-.57-1.6-.57-.93 0-1.44.45-.51.46-.51 1.26l-3.72-.01-.01-.08q-.09-1.8 1.57-3.12 1.66-1.31 4.36-1.31 2.56 0 4.16 1.3 1.59 1.3 1.59 3.7v5.89q0 1 .15 1.89.16.88.49 1.75m-7.37-2.57q1.01 0 1.8-.5t1.07-1.16v-2.02h-2.15q-1.23 0-1.86.61-.63.62-.63 1.49 0 .71.47 1.14.48.44 1.3.44m22.51-4.44v.27q0 3.17-1.46 5.09-1.46 1.93-4.09 1.93-1.12 0-1.99-.42-.87-.41-1.49-1.22v6.84h-3.83v-19.74h3.46l.23 1.68q.63-.93 1.52-1.44t2.08-.51q2.65 0 4.11 2.07t1.46 5.45m-3.85.27v-.27q0-2.02-.67-3.27-.67-1.26-2.06-1.26-.87 0-1.48.36t-.97 1.02v6.24q.36.61.97.93.61.31 1.51.31 1.4 0 2.05-1.09t.65-2.97m18.45 6.74h-3.85q-.21-.49-.36-1.03-.16-.54-.22-1.11-.6 1.05-1.56 1.73-.97.69-2.32.69-2.24 0-3.45-1.16-1.22-1.15-1.22-3.14 0-2.1 1.62-3.25 1.61-1.15 4.71-1.15h2.15v-1.14q0-1.03-.54-1.59-.54-.57-1.59-.57-.94 0-1.45.45-.51.46-.51 1.26l-3.71-.01-.02-.08q-.09-1.8 1.57-3.12 1.66-1.31 4.37-1.31 2.55 0 4.15 1.3 1.59 1.3 1.59 3.7v5.89q0 1 .16 1.89.15.88.48 1.75m-7.37-2.57q1.01 0 1.8-.5t1.07-1.16v-2.02h-2.15q-1.22 0-1.86.61-.63.62-.63 1.49 0 .71.48 1.14.47.44 1.29.44"/></svg>